# xmcd
#
# Track frame offsets: 
#        150
#        11477
#        25819
#        35683
#        44778
#        60779
#        81811
#        111110
#        122119
#        138073
#        154322
#        172061
#        187802
#
# Disc length: 2825 seconds
#
# Revision: 0
# Processed by: cddbd v1.5.1PL2 Copyright (c) Steve Scherf et al.
# Submitted via: ExactAudioCopy v0.95b3
#
DISCID=a40b070d
DTITLE=Van Morrison - Rockefeller Music Hall
DYEAR=1986
DGENRE=Celtic
TTITLE0=Celtic Swing
TTITLE1=Northern Muse (Solid Gound)
TTITLE2=Cry For Home
TTITLE3=She Gives Me Religion
TTITLE4=Tore Down A La Rimbaud
TTITLE5=Vanlose Stairway
TTITLE6=It's All In The Game > Make It Real One More Time
TTITLE7=Oh The Warm Feeling
TTITLE8=Here Comes The Knight
TTITLE9=Beautiful Vision
TTITLE10=Cleaning Windows
TTITLE11=Dweller On The Threshold
TTITLE12=Help Me
EXTD=
EXTT0=
EXTT1=
EXTT2=
EXTT3=
EXTT4=
EXTT5=
EXTT6=
EXTT7=
EXTT8=
EXTT9=
EXTT10=
EXTT11=
EXTT12=
PLAYORDER=
